<?xml version="1.0" standalone="no"?>
<!DOCTYPE svg PUBLIC "-//W3C//DTD SVG 20010904//EN"
 "http://www.w3.org/TR/2001/REC-SVG-20010904/DTD/svg10.dtd">
<svg version="1.0" xmlns="http://www.w3.org/2000/svg"
 width="1140.000000pt" height="360.000000pt" viewBox="0 0 1140.000000 360.000000"
 preserveAspectRatio="xMidYMid meet">

<g transform="translate(0.000000,360.000000) scale(0.100000,-0.100000)"
fill="#000000" stroke="none">
<path d="M0 1800 l0 -1800 5700 0 5700 0 0 1800 0 1800 -5700 0 -5700 0 0
-1800z m9360 1673 c212 -54 397 -219 444 -395 15 -54 17 -108 14 -383 -3 -191
-8 -335 -15 -357 -9 -30 -8 -40 3 -49 12 -10 14 -68 14 -335 -1 -193 -5 -326
-10 -329 -6 -4 -10 1 -10 10 0 9 -5 13 -11 10 -6 -4 -8 -13 -5 -21 3 -8 1 -14
-4 -14 -6 0 -11 8 -12 18 0 9 -2 22 -2 29 -2 22 -14 24 -55 12 -38 -11 -43
-10 -64 9 -13 12 -27 19 -31 15 -4 -4 -12 0 -17 10 -6 9 -14 15 -18 13 -10 -7
-1 -65 12 -73 5 -3 7 -2 4 3 -3 6 -2 16 4 24 5 10 9 11 9 3 0 -8 7 -10 18 -6
15 6 16 5 2 -13 -21 -27 -33 -34 -47 -29 -8 2 -10 -2 -6 -13 6 -15 5 -16 -12
-2 -17 14 -17 14 -4 -7 8 -13 19 -23 26 -23 7 0 10 -6 7 -14 -6 -16 -48 -30
-52 -17 -2 5 -16 2 -32 -6 -17 -8 -38 -12 -49 -8 -12 4 -21 0 -25 -12 -21 -59
-24 -73 -15 -79 5 -3 9 5 9 18 1 21 2 22 14 6 15 -20 27 -24 24 -7 -4 16 60
51 68 38 3 -6 12 -8 19 -5 8 3 17 -7 24 -25 13 -37 49 -39 80 -3 15 17 28 23
41 19 12 -4 20 -2 20 5 0 11 47 6 59 -5 9 -10 -67 -110 -124 -164 -82 -76
-166 -123 -281 -156 -76 -22 -106 -25 -194 -23 l-104 3 -13 50 -12 50 70 118
c67 111 74 120 120 139 41 17 49 25 55 54 5 26 25 49 93 107 85 72 86 75 119
164 17 50 32 93 32 96 0 2 -28 23 -63 44 -53 33 -76 41 -137 47 -40 4 -96 16
-123 27 l-50 20 -28 -27 -29 -28 0 46 0 45 -124 83 c-123 81 -125 83 -152 145
l-27 64 31 42 31 41 -26 57 c-13 31 -27 62 -30 69 -4 9 -36 -16 -94 -74 l-89
-89 0 -93 0 -94 74 -122 73 -122 -15 -84 c-12 -69 -13 -94 -3 -142 l12 -58
-78 -144 -77 -145 -18 27 c-49 74 -49 67 -46 873 l3 754 34 70 c40 82 145 191
233 243 155 92 362 121 538 75z m-2820 -1158 l0 -1135 -210 0 -211 0 21 28
c30 40 13 83 -27 70 -5 -2 -7 -7 -5 -12 2 -5 -4 -6 -11 -3 -11 4 -13 0 -9 -15
3 -15 7 -16 13 -7 6 10 10 9 15 -5 12 -30 -9 -51 -55 -54 l-41 -3 0 417 0 416
34 -6 c28 -5 36 -3 50 18 18 28 22 71 6 61 -5 -3 -10 -2 -10 3 0 6 -17 19 -37
29 l-38 20 -2 541 c-2 437 0 540 10 536 10 -3 12 5 9 32 -4 30 -2 36 10 31 8
-3 21 -1 29 4 11 7 9 9 -8 9 -28 0 -35 12 -27 45 7 27 31 33 66 14 24 -13 33
-6 22 18 -4 10 -8 25 -9 33 -1 14 -6 14 -47 3 -13 -4 -15 0 -11 16 6 24 -15
29 -35 9 -9 -9 -12 -8 -12 5 0 16 22 17 260 17 l260 0 0 -1135z m918 1129 c27
-8 29 -24 3 -24 -12 0 -23 -12 -31 -32 -10 -25 -14 -28 -17 -15 -3 9 -10 17
-17 17 -15 0 -46 -36 -39 -44 4 -3 -1 -6 -10 -6 -10 0 -17 -4 -17 -10 0 -5 6
-7 13 -4 19 7 18 -27 0 -48 -8 -9 -12 -22 -8 -27 6 -10 0 -12 -47 -15 -9 -1
-20 -4 -24 -8 -4 -5 -20 -8 -35 -8 -35 0 -45 -15 -29 -46 10 -18 10 -27 1 -38
-9 -11 -9 -16 1 -23 16 -10 98 -11 98 0 0 4 7 7 16 7 8 0 12 -4 9 -10 -3 -5 1
-10 11 -10 13 0 14 3 5 14 -6 7 -13 27 -15 44 -3 28 -1 30 15 21 12 -6 19 -6
19 0 0 5 -6 11 -12 14 -10 3 -10 7 0 19 7 9 12 20 11 24 -4 25 3 44 16 44 8 0
15 6 15 14 0 19 30 25 53 12 12 -7 20 -8 25 -1 4 6 25 25 47 44 26 23 39 41
37 54 -3 16 0 18 20 12 48 -15 127 -67 168 -111 51 -55 88 -132 100 -211 6
-33 10 -370 10 -783 0 -789 -2 -810 -56 -911 -36 -66 -101 -124 -178 -160
-115 -54 -163 -59 -588 -59 l-388 0 0 1135 0 1135 398 0 c218 0 407 -3 420 -6z
m1002 -1129 l0 -1135 -265 0 -265 0 0 1135 0 1135 265 0 265 0 0 -1135z m2660
934 l0 -200 -47 3 c-42 3 -48 6 -47 26 0 17 -5 22 -23 22 -16 0 -23 6 -23 20
0 11 7 23 15 26 8 4 13 10 10 15 -3 4 0 17 7 28 17 28 -1 47 -30 32 -34 -18
-45 -14 -38 14 7 27 -3 32 -22 13 -8 -8 -15 -8 -27 2 -21 17 -21 -7 0 -30 14
-15 13 -21 -10 -53 -23 -35 -22 -50 3 -25 20 20 26 -1 7 -22 -23 -26 -11 -39
14 -16 19 17 21 17 49 -2 69 -49 65 -52 -67 -52 l-121 0 1 -592 c1 -519 -1
-593 -14 -596 -8 -2 -24 6 -35 18 -12 13 -22 17 -26 11 -4 -5 -2 -12 4 -16 18
-11 11 -35 -10 -35 -11 0 -20 -4 -20 -10 0 -14 26 -13 50 2 14 9 25 10 36 3
19 -12 15 -31 -6 -27 -13 2 -13 2 0 -7 22 -15 31 -170 10 -181 -11 -6 -12 -11
-2 -23 9 -11 13 -73 15 -216 l2 -201 -262 0 -263 0 0 736 c0 404 4 733 8 730
10 -6 72 49 72 64 0 6 -3 9 -7 7 -5 -3 -24 8 -43 24 l-35 29 29 24 c33 26 29
54 -5 35 -17 -9 -20 -8 -19 8 1 10 2 62 1 116 l-1 97 -180 0 -180 0 0 200 0
200 615 0 615 0 0 -201z m-10595 177 c63 -27 96 -116 58 -158 -15 -17 -15 -18
0 -18 14 0 17 -10 17 -55 l0 -55 -53 0 -53 0 -2 82 c-1 45 -6 86 -12 92 -26
26 -30 -17 -28 -270 3 -222 5 -259 18 -259 12 0 16 17 18 83 2 52 -1 82 -8 82
-5 0 -10 22 -10 50 0 50 4 55 34 44 13 -5 14 -9 5 -20 -21 -26 11 -93 46 -94
6 0 4 4 -3 8 -20 13 -23 50 -4 48 10 -1 16 5 13 14 -9 37 -5 45 22 48 l27 3 0
-186 0 -187 -42 5 c-24 2 -61 0 -83 -6 -33 -8 -48 -7 -76 7 -68 32 -69 40 -69
366 0 322 2 333 63 370 38 24 75 25 122 6z m2646 -1 c50 -26 69 -69 69 -157
l0 -78 -50 0 -50 0 0 58 c0 69 -11 92 -37 76 -23 -15 -21 -80 3 -143 l17 -44
-27 -23 c-16 -14 -33 -21 -43 -17 -11 4 -14 3 -9 -5 4 -7 1 -12 -9 -12 -13 0
-15 5 -10 18 13 28 11 65 -3 70 -11 3 -12 0 -2 -18 15 -28 3 -41 -15 -16 -21
28 -38 123 -31 169 18 111 109 167 197 122z m-2321 -10 c54 -28 60 -47 60
-196 0 -124 -2 -138 -20 -154 l-20 -18 22 -24 c23 -25 24 -30 31 -246 l3 -98
-56 3 -55 3 -7 45 c-9 62 -10 230 0 230 8 0 29 46 34 75 3 20 -29 35 -41 18
-3 -6 -15 -15 -26 -21 -11 -6 -14 -12 -7 -12 18 0 15 -30 -3 -30 -9 0 -18 -12
-21 -29 -5 -24 -11 -29 -34 -27 -18 1 -26 -2 -23 -10 7 -18 35 -26 47 -14 22
22 26 6 26 -110 l0 -120 -55 0 -55 0 0 269 0 269 33 -2 c27 -1 32 3 34 24 2
20 1 21 -5 7 -7 -15 -10 -13 -25 18 -9 20 -22 33 -27 30 -6 -4 -10 20 -10 64
l0 71 85 0 c57 0 96 -5 115 -15z m328 -27 c0 -56 -12 -68 -64 -68 l-44 0 0
-94 0 -95 38 -3 37 -3 0 -55 0 -55 -37 -3 -38 -3 0 -105 0 -104 55 0 55 0 0
-60 0 -60 -110 0 -110 0 0 375 0 375 109 0 110 0 -1 -42z m272 -14 l0 -56 -55
4 -55 3 0 -97 0 -98 35 0 35 0 0 -60 c0 -57 -1 -60 -25 -60 -14 0 -25 6 -25
13 0 21 -87 20 -95 -1 -6 -15 -8 -15 -15 3 -7 17 -9 17 -9 3 -1 -10 -5 -18
-11 -18 -5 0 -10 20 -10 45 0 28 4 45 12 45 9 0 9 3 0 12 -8 8 -12 49 -12 120
0 90 2 106 14 102 20 -8 65 27 66 49 0 11 4 15 12 11 7 -4 8 -3 4 4 -5 8 -15
8 -33 1 -30 -11 -63 -3 -63 16 0 11 24 14 115 14 l115 1 0 -56z m204 -126 c15
-101 30 -185 32 -187 2 -2 4 80 4 182 l0 187 50 0 50 0 -2 -372 -3 -373 -57
-3 c-53 -3 -58 -1 -63 20 -3 13 -20 95 -39 183 l-34 160 -1 -182 -1 -183 -50
0 -50 0 0 375 0 375 68 0 68 0 28 -182z m547 144 l29 -32 0 -303 c0 -336 0
-335 -66 -363 -19 -8 -68 -14 -114 -14 l-80 0 0 376 0 376 101 -4 c99 -3 101
-3 130 -36z m274 -4 c6 -44 55 -516 55 -530 0 -4 -5 -8 -11 -8 -6 0 -9 7 -5
15 6 17 -11 20 -34 5 -10 -6 -11 -10 -2 -10 6 0 12 -6 12 -14 0 -21 21 -31 30
-15 9 13 12 -3 25 -103 l6 -48 -60 0 -61 0 0 43 c0 66 -9 87 -36 87 -21 0 -24
-5 -24 -34 0 -18 -3 -48 -6 -65 -6 -30 -9 -31 -55 -31 -33 0 -49 4 -49 13 0 6
5 67 11 134 10 103 14 120 28 116 14 -4 14 -3 1 5 -15 11 -13 43 22 375 l11
107 68 0 68 0 6 -42z m166 27 c1 -8 2 -18 3 -22 1 -5 8 -42 16 -83 18 -100 26
-112 34 -54 3 27 11 77 17 112 l11 62 55 0 c40 0 52 -3 47 -12 -4 -7 -9 -24
-11 -38 -1 -14 -21 -103 -43 -199 -38 -166 -40 -182 -40 -338 l0 -163 -55 0
-55 0 0 84 c0 64 3 85 14 89 8 3 22 20 31 38 13 24 14 34 5 43 -9 8 -14 8 -17
-1 -9 -24 -33 14 -33 51 0 19 -20 123 -45 232 -25 108 -45 200 -45 205 0 5 25
9 55 9 42 0 55 -4 56 -15z m309 -43 c0 -53 -4 -63 -36 -100 -20 -23 -44 -42
-56 -42 -19 0 -19 0 1 34 25 40 27 56 6 56 -12 0 -15 13 -15 55 l0 55 50 0 50
0 0 -58z m2608 -294 l134 -3 -66 -47 c-36 -27 -66 -44 -66 -39 0 5 7 14 15 21
19 15 19 34 2 49 -11 8 -18 6 -32 -9 -11 -12 -31 -20 -51 -20 -26 0 -33 -4
-36 -22 -2 -17 -14 -27 -47 -37 -40 -12 -45 -12 -56 3 -15 20 -70 32 -79 17
-4 -6 -11 -11 -16 -11 -15 0 -40 31 -40 50 0 18 60 84 84 93 8 3 8 10 -1 25
-10 16 -7 35 15 102 l27 82 40 -125 40 -126 133 -3z m-1333 122 l39 -120 38 0
c21 0 38 -4 38 -10 0 -5 7 -10 15 -10 8 0 15 5 15 10 0 6 34 10 82 10 l81 0
-106 -77 c-59 -42 -107 -82 -107 -88 0 -6 18 -64 40 -129 l39 -118 -26 17
c-14 10 -63 44 -107 77 -44 32 -86 56 -92 54 -7 -3 -56 -37 -108 -75 -53 -39
-97 -71 -99 -71 -2 0 14 53 35 118 21 64 38 122 38 128 0 5 -48 45 -107 87
l-106 77 136 0 136 0 37 120 c21 66 40 120 44 120 3 0 24 -54 45 -120z m-1080
-135 c25 0 91 -126 101 -192 7 -45 -16 -117 -30 -94 -4 6 -4 16 -1 21 10 16
-17 11 -37 -7 -23 -20 -23 -28 1 -62 19 -26 19 -28 2 -38 -39 -24 -87 -26
-135 -4 -59 26 -85 77 -86 169 l0 62 55 0 54 0 3 -61 c2 -47 7 -65 21 -73 15
-9 21 -7 33 9 22 29 11 74 -42 178 l-44 88 22 9 c13 5 19 9 14 9 -4 1 2 10 15
20 l24 19 5 -26 c4 -19 12 -27 25 -27z m1960 5 c-3 -5 -1 -19 5 -30 19 -35
-15 -35 -65 1 -25 18 -45 34 -45 36 0 2 25 3 56 3 33 0 53 -4 49 -10z m-3857
-87 c-1 -5 1 -18 5 -29 9 -25 39 -23 70 4 17 15 18 11 16 -76 -1 -51 -5 -92
-10 -92 -5 0 -9 -7 -9 -15 0 -22 23 -18 38 5 9 15 23 20 52 20 l40 0 0 -60 0
-60 -115 0 -115 0 0 155 c0 131 2 155 15 155 8 0 14 -3 13 -7z m3907 -4 c11
-17 -1 -21 -15 -4 -8 9 -8 15 -2 15 6 0 14 -5 17 -11z m40 -29 c3 -5 1 -10 -4
-10 -6 0 -11 5 -11 10 0 6 2 10 4 10 3 0 8 -4 11 -10z m-2568 -42 c-3 -8 -6
-5 -6 6 -1 11 2 17 5 13 3 -3 4 -12 1 -19z m2896 -120 c20 -61 35 -113 34
-114 -1 -1 -36 23 -77 53 -41 30 -80 57 -86 61 -6 4 -9 23 -7 43 4 29 11 38
41 52 21 9 42 16 47 16 6 1 27 -49 48 -111z m-239 37 c4 -14 12 -25 18 -25 7
0 3 -7 -9 -15 -30 -21 -69 -5 -76 32 -12 57 53 65 67 8z m-80 -18 c-3 -8 4
-24 14 -37 19 -24 19 -24 -2 -41 -12 -10 -24 -13 -27 -8 -8 14 -41 -1 -35 -17
3 -7 -2 -18 -10 -24 -8 -7 -14 -10 -14 -8 0 4 31 98 45 136 2 6 11 12 19 12 9
0 13 -6 10 -13z m-685 -1932 c62 30 115 54 117 52 2 -2 -22 -53 -54 -113 l-59
-109 90 -97 c49 -54 87 -98 85 -98 -3 0 -54 9 -114 20 -60 11 -117 20 -126 20
-11 0 -36 -36 -75 -110 -32 -60 -60 -110 -63 -110 -4 0 -14 55 -23 122 -9 67
-20 125 -24 128 -5 4 -57 15 -118 25 -127 21 -150 29 -114 40 13 4 54 22 91
40 38 19 65 28 62 20 -7 -18 9 -26 26 -14 12 8 12 12 3 16 -20 7 -16 19 10 30
l24 11 -18 124 c-10 67 -19 128 -19 133 0 6 42 -34 93 -88 l92 -99 114 57z
m-3817 -46 c19 6 42 9 51 5 12 -4 17 -1 17 11 0 10 23 27 65 46 35 16 67 29
70 29 3 0 -15 -37 -40 -82 -26 -46 -53 -97 -62 -115 l-16 -32 86 -93 c47 -51
84 -94 82 -96 -3 -3 -198 33 -235 44 -11 3 -34 -30 -80 -113 -35 -64 -65 -112
-67 -107 -1 5 -9 62 -17 127 -8 65 -16 121 -18 123 -3 2 -57 15 -122 28 -64
13 -119 26 -122 28 -2 3 48 29 111 58 63 29 115 58 115 64 0 6 -7 58 -15 116
-8 58 -14 112 -14 120 0 8 40 -27 88 -79 l88 -94 35 12z m1127 78 c33 -51 61
-99 61 -106 0 -7 6 -11 13 -8 7 2 57 17 112 31 55 15 109 30 119 33 14 4 5
-13 -29 -56 -47 -59 -68 -75 -45 -32 6 12 8 26 5 31 -10 16 -34 11 -45 -9 -5
-11 -23 -22 -39 -26 -22 -5 -31 -13 -33 -32 -2 -14 -12 -31 -23 -37 -11 -6
-23 -15 -27 -20 -4 -6 -17 -5 -33 2 -36 17 -72 15 -79 -4 -9 -24 -49 -13 -60
18 -7 20 -5 30 7 43 10 9 17 21 17 27 0 6 7 20 17 30 14 16 14 20 1 36 -11 13
-14 35 -10 95 2 42 5 77 7 77 1 0 30 -42 64 -93z m3944 -28 c64 32 117 56 117
54 0 -2 -28 -55 -61 -119 l-62 -116 94 -94 c51 -52 89 -94 84 -94 -6 0 -59 9
-119 20 -60 11 -117 20 -125 20 -10 0 -38 -43 -76 -116 -35 -67 -61 -108 -63
-97 -2 10 -11 70 -20 133 l-17 115 -30 3 c-37 4 -59 22 -27 22 32 0 27 21 -13
59 -29 27 -36 30 -41 17 -3 -9 -1 -23 6 -31 15 -19 3 -38 -21 -32 -11 3 -19 1
-19 -5 0 -10 -74 -2 -98 11 -8 4 32 28 100 61 62 30 115 55 117 56 2 2 -4 54
-13 116 -9 62 -16 120 -16 128 0 8 42 -26 93 -77 l92 -91 118 57z m1237 -5
c63 30 116 54 118 52 2 -2 -24 -55 -57 -117 l-60 -114 97 -98 c74 -75 91 -97
72 -93 -14 3 -65 13 -115 21 -49 9 -100 18 -111 20 -18 4 -29 -10 -74 -95 -80
-152 -74 -152 -95 -1 -16 114 -20 131 -36 131 -22 0 -23 4 -8 32 10 18 9 20
-5 15 -24 -9 -35 42 -12 59 14 10 15 17 7 32 -8 15 -8 21 1 24 11 4 10 23 -19
223 l-5 40 94 -93 94 -93 114 55z m2549 -8 c63 30 115 53 117 51 2 -1 -24 -51
-57 -110 -33 -59 -59 -112 -57 -117 2 -5 40 -50 86 -99 46 -50 77 -91 70 -91
-7 1 -65 12 -128 25 -63 13 -116 23 -116 22 -1 -1 -30 -51 -64 -112 -34 -60
-63 -111 -65 -113 -1 -2 -8 43 -14 100 -20 167 -14 155 -79 168 -31 6 -77 17
-102 24 -37 11 -41 15 -26 21 11 5 27 3 38 -4 11 -7 23 -9 26 -5 4 4 1 9 -5
11 -15 5 -17 33 -3 33 6 0 10 -5 10 -11 0 -5 5 -7 10 -4 6 4 8 15 5 26 -5 15
3 23 38 40 40 20 46 26 49 61 2 21 0 42 -5 47 -5 5 -10 37 -12 71 -2 34 -6 65
-9 68 -3 3 -6 12 -6 21 1 9 41 -26 93 -80 l92 -97 114 54z m1011 23 l68 -77
117 54 c65 30 119 53 121 52 1 -2 -15 -35 -37 -73 -32 -54 -39 -63 -35 -39 8
52 -28 74 -45 26 -6 -17 -21 -32 -40 -39 -18 -7 -28 -16 -24 -23 10 -17 -3
-60 -19 -60 -8 0 -17 -7 -20 -16 -4 -11 -12 -13 -28 -8 -38 12 -72 5 -90 -18
-15 -20 -19 -21 -42 -9 -33 18 -38 35 -22 68 41 82 42 84 23 98 -14 10 -34
102 -37 169 0 14 35 -20 110 -105z m-7500 -27 c-5 -2 -10 -8 -10 -14 0 -6 7
-7 16 -4 11 4 22 -1 31 -14 14 -20 15 -19 75 11 50 25 65 29 84 20 17 -7 22
-15 17 -28 -6 -15 -5 -16 9 -3 12 11 13 20 6 33 -5 10 -8 20 -6 21 31 20 59
36 63 36 4 0 -20 -51 -54 -113 l-60 -114 50 -49 c28 -27 68 -70 89 -95 l39
-46 -127 23 c-70 12 -128 22 -129 21 0 -1 -28 -53 -61 -116 -67 -128 -63 -129
-82 14 -17 123 -19 129 -47 142 -14 7 -30 10 -34 7 -9 -5 -119 12 -127 21 -3
2 1 11 8 20 7 9 10 18 6 22 -3 4 30 23 74 44 72 34 80 41 76 61 -3 13 -11 61
-16 107 -15 111 -4 119 68 48 29 -28 48 -53 42 -55z m4945 48 c27 -27 43 -50
36 -50 -11 0 -11 -3 -1 -15 9 -11 15 -12 20 -5 4 7 13 4 24 -9 17 -19 18 -19
79 9 65 29 97 27 97 -7 0 -13 3 -14 12 -5 10 10 10 17 1 31 -11 17 -8 22 23
40 47 28 49 27 26 -11 -10 -18 -39 -70 -63 -116 l-43 -82 94 -95 c52 -52 92
-95 89 -95 -3 0 -55 9 -115 20 -60 11 -118 20 -129 20 -15 0 -34 -26 -78 -111
-33 -61 -60 -109 -62 -107 -2 2 -11 57 -20 123 -10 66 -21 124 -25 128 -4 4
-38 12 -76 17 -108 15 -118 18 -104 35 6 8 9 18 6 23 -3 5 31 26 74 47 61 30
80 44 80 60 0 18 -13 109 -25 178 -7 43 24 34 80 -23z m-5805 -363 c-3 -2 -50
5 -105 15 -94 18 -101 21 -114 49 -14 32 -13 35 33 87 l20 23 85 -85 c47 -47
83 -87 81 -89z m8164 72 c-6 -11 -87 -4 -108 8 -5 4 11 16 35 28 l43 22 19
-23 c10 -13 15 -29 11 -35z m551 -117 c-3 -3 -148 23 -185 34 -22 6 -44 60
-31 76 6 7 21 26 33 42 l22 29 82 -89 c46 -49 81 -90 79 -92z m-9291 131 c3
-10 9 -24 12 -30 8 -19 -33 -15 -81 6 l-40 18 35 11 c52 15 67 14 74 -5z
m8811 -33 c8 -13 -5 -13 -25 0 -13 8 -13 10 2 10 9 0 20 -4 23 -10z m-8734
-17 c13 -15 12 -15 -8 -4 -24 12 -29 21 -14 21 5 0 15 -7 22 -17z m8779 7 c0
-5 -2 -10 -4 -10 -3 0 -8 5 -11 10 -3 6 -1 10 4 10 6 0 11 -4 11 -10z m-8730
-10 c0 -5 -4 -10 -10 -10 -5 0 -10 5 -10 10 0 6 5 10 10 10 6 0 10 -4 10 -10z
m122 -68 c34 -38 22 -64 -25 -56 l-32 6 26 -25 c23 -21 25 -26 12 -43 -7 -10
-21 -19 -31 -19 -11 0 -17 -8 -17 -22 0 -11 -3 -25 -7 -29 -5 -4 -8 27 -8 70
0 59 3 78 15 82 13 5 13 9 3 21 -10 12 -9 18 7 29 25 19 28 18 57 -14z m8734
13 c4 -8 12 -15 20 -15 17 0 17 -10 1 -30 -14 -17 -67 -26 -67 -11 0 5 -7 17
-16 26 -13 12 -14 19 -4 30 16 19 59 19 66 0z m-66 -55 c0 -5 13 -16 30 -25
27 -14 28 -18 18 -40 -6 -13 -15 -22 -20 -19 -5 3 -15 1 -23 -6 -10 -9 -14 -7
-19 7 -5 17 -9 70 -7 86 2 11 21 9 21 -3z m2 -142 c-9 -9 -12 -7 -12 12 0 19
3 21 12 12 9 -9 9 -15 0 -24z"/>
<path d="M9084 3209 c-16 -5 -47 -23 -68 -41 l-38 -33 12 -48 c10 -36 23 -57
57 -87 l45 -39 59 51 c51 44 59 56 59 87 0 28 -9 44 -42 78 -23 24 -45 43 -48
42 -3 0 -19 -5 -36 -10z m73 -46 c14 -21 17 -39 13 -71 -4 -38 -10 -47 -45
-68 l-40 -23 -33 25 c-26 21 -32 32 -32 65 0 59 33 99 81 99 30 0 41 -6 56
-27z"/>
<path d="M8897 3009 l-59 -30 7 -42 c4 -23 9 -43 10 -45 2 -2 17 4 34 12 l30
16 7 -35 c7 -41 7 -41 60 -50 42 -6 42 -6 54 31 12 36 11 39 -14 60 -30 27
-32 31 -10 36 11 2 5 13 -23 40 l-38 36 -58 -29z"/>
<path d="M9201 2963 c-57 -33 -67 -43 -91 -97 -19 -42 -26 -71 -23 -93 3 -18
7 -33 10 -33 3 0 31 24 64 53 53 48 66 55 129 66 75 14 79 20 64 78 -6 21 -60
63 -80 63 -5 -1 -38 -17 -73 -37z"/>
<path d="M9390 2910 c0 -22 3 -40 8 -40 4 -1 26 -4 49 -9 l41 -8 -15 32 c-9
18 -30 40 -49 49 l-34 16 0 -40z"/>
<path d="M8757 2901 c-45 -20 -55 -29 -46 -38 9 -9 22 -5 58 19 57 39 55 37
50 42 -2 2 -30 -8 -62 -23z"/>
<path d="M9257 2806 c-67 -28 -123 -68 -132 -95 -5 -17 55 -133 76 -146 4 -3
47 14 94 37 l86 43 -5 35 c-3 19 -8 61 -11 93 -8 68 -16 70 -108 33z"/>
<path d="M9394 2791 c3 -20 8 -59 11 -87 l7 -52 44 25 c44 25 45 26 42 71 -3
45 -3 45 -56 62 l-53 18 5 -37z"/>
<path d="M9535 2776 c-16 -41 -16 -47 0 -104 l17 -61 58 39 58 40 4 59 3 59
-44 6 c-75 10 -78 9 -96 -38z"/>
<path d="M8800 2776 c-33 -9 -49 -20 -63 -44 -11 -18 -18 -34 -16 -35 2 -1 19
-15 36 -31 25 -23 35 -27 46 -18 11 9 16 6 25 -14 l12 -25 43 35 c27 22 66 41
110 52 37 10 67 21 67 24 0 18 -52 49 -98 59 -64 13 -103 13 -162 -3z"/>
<path d="M8987 2661 c-54 -22 -117 -66 -117 -83 0 -6 23 -41 51 -79 l51 -68
98 52 99 52 -39 70 c-45 81 -62 88 -143 56z"/>
<path d="M8697 2652 c-12 -42 -17 -93 -11 -103 4 -7 21 4 45 27 37 36 38 39
21 57 -29 32 -50 39 -55 19z"/>
<path d="M9456 2634 c-32 -22 -37 -30 -31 -52 9 -36 7 -35 49 -16 32 16 36 22
36 56 0 21 -3 38 -8 38 -4 0 -25 -12 -46 -26z"/>
<path d="M9552 2572 l-112 -57 6 -45 c4 -25 8 -47 10 -49 2 -2 58 7 125 20
121 23 121 23 149 63 l28 41 -35 42 c-20 24 -40 43 -47 42 -6 0 -62 -26 -124
-57z"/>
<path d="M9315 2560 c-38 -20 -77 -39 -85 -42 -21 -7 38 -118 63 -118 23 0 75
26 103 51 19 18 20 24 10 78 -6 33 -13 61 -16 63 -3 3 -36 -12 -75 -32z"/>
<path d="M9090 2449 c-47 -27 -86 -53 -88 -58 -5 -16 48 -101 63 -101 7 0 49
18 93 41 l80 41 -25 56 c-14 32 -28 60 -32 64 -3 3 -44 -16 -91 -43z"/>
<path d="M8882 2439 c-11 -18 -20 -35 -18 -36 5 -5 66 19 66 26 0 4 -6 15 -13
25 -13 17 -15 16 -35 -15z"/>
<path d="M9633 2398 c-37 -19 -46 -30 -71 -94 l-30 -72 25 -23 24 -23 52 28
c73 41 83 51 96 103 11 44 11 47 -15 74 -32 34 -28 33 -81 7z"/>
<path d="M9390 2390 c-14 -11 -28 -20 -32 -20 -4 0 -18 -4 -32 -10 l-26 -10
32 -65 c34 -68 41 -72 83 -53 20 9 25 18 25 48 0 51 -11 130 -19 130 -3 0 -17
-9 -31 -20z"/>
<path d="M9488 2393 c-15 -4 -18 -16 -18 -66 l1 -62 24 30 c24 28 37 107 18
104 -5 -1 -16 -3 -25 -6z"/>
<path d="M8947 2374 c-3 -4 -32 -9 -64 -13 l-57 -6 59 -48 c53 -43 64 -48 98
-43 21 2 41 6 43 9 6 6 -57 107 -66 107 -4 0 -9 -3 -13 -6z"/>
<path d="M9216 2301 c-20 -16 -53 -35 -72 -41 -19 -7 -34 -16 -32 -20 2 -5 34
-29 73 -54 69 -44 70 -44 98 -28 16 9 31 22 34 28 2 7 -11 42 -29 79 l-34 66
-38 -30z"/>
<path d="M9487 2233 c-4 -3 -7 -18 -6 -32 1 -26 1 -25 10 3 9 31 7 41 -4 29z"/>
<path d="M9010 2211 c0 -4 33 -28 73 -53 53 -33 78 -43 97 -38 23 5 20 9 -37
53 -47 36 -70 47 -97 47 -20 0 -36 -4 -36 -9z"/>
<path d="M9426 2195 c-11 -8 -29 -15 -41 -15 -12 0 -32 -11 -45 -25 -13 -14
-29 -25 -37 -25 -29 0 -10 -17 47 -42 75 -33 86 -26 96 60 4 34 5 62 3 62 -2
0 -13 -7 -23 -15z"/>
<path d="M9579 2149 c-54 -19 -55 -20 -65 -69 l-10 -50 52 -15 c84 -24 105
-20 137 25 l28 40 -31 45 c-17 25 -36 45 -43 44 -7 0 -37 -9 -68 -20z"/>
<path d="M9245 2090 c-4 -6 3 -10 14 -10 25 0 27 6 6 13 -8 4 -17 2 -20 -3z"/>
<path d="M9715 1710 c-4 -6 -3 -16 3 -22 13 -13 23 4 13 21 -7 10 -10 10 -16
1z"/>
<path d="M9790 1701 c0 -7 -5 -9 -12 -5 -7 5 -8 3 -3 -5 5 -9 10 -10 18 -2 6
6 8 14 4 18 -4 3 -7 1 -7 -6z"/>
<path d="M9478 1563 c-28 -7 -21 -21 7 -15 14 2 22 8 19 13 -3 5 -6 8 -7 8 -1
-1 -10 -3 -19 -6z"/>
<path d="M9547 1453 c-4 -3 -7 -11 -7 -17 0 -6 5 -5 12 2 6 6 9 14 7 17 -3 3
-9 2 -12 -2z"/>
<path d="M6065 3170 c3 -5 11 -10 16 -10 6 0 7 5 4 10 -3 6 -11 10 -16 10 -6
0 -7 -4 -4 -10z"/>
<path d="M6395 2760 c-3 -5 3 -10 13 -10 11 0 29 -13 39 -31 17 -26 21 -28 32
-15 17 20 7 33 -36 51 -42 18 -40 18 -48 5z"/>
<path d="M6270 2710 c-8 -6 -25 -10 -36 -10 -30 0 -38 -36 -13 -61 22 -22 39
-17 39 12 0 16 4 19 20 14 19 -6 20 -3 14 22 -9 35 -7 34 -24 23z"/>
<path d="M6355 2700 c3 -5 10 -10 16 -10 5 0 9 5 9 10 0 6 -7 10 -16 10 -8 0
-12 -4 -9 -10z"/>
<path d="M6405 2630 c3 -5 16 -10 28 -9 21 0 21 1 2 9 -28 12 -37 12 -30 0z"/>
<path d="M6040 2220 c0 -5 5 -10 10 -10 6 0 10 5 10 10 0 6 -4 10 -10 10 -5 0
-10 -4 -10 -10z"/>
<path d="M6311 2176 c-8 -10 -9 -16 -1 -21 5 -3 10 -15 10 -26 0 -10 2 -19 4
-19 2 0 12 -3 22 -7 13 -5 16 -3 12 9 -10 24 11 39 36 26 21 -11 21 -11 2 11
-11 11 -27 21 -38 21 -10 0 -18 5 -18 10 0 14 -16 12 -29 -4z"/>
<path d="M6146 2153 c-13 -13 -6 -42 9 -37 16 7 20 30 6 38 -4 3 -11 3 -15 -1z"/>
<path d="M6287 2099 c-7 -28 -6 -31 12 -20 9 6 10 14 4 26 -9 15 -11 15 -16
-6z"/>
<path d="M6172 1994 c-43 -34 -57 -61 -41 -80 9 -11 8 -18 -2 -31 -12 -14 -12
-16 1 -11 8 2 19 14 25 26 7 15 17 21 35 20 22 -3 25 1 25 32 0 34 1 35 34 32
l34 -3 -25 21 c-34 26 -46 25 -86 -6z"/>
<path d="M6104 1969 c-3 -6 -1 -16 5 -22 8 -8 11 -5 11 11 0 24 -5 28 -16 11z"/>
<path d="M6050 1328 c0 -4 11 -8 25 -8 14 0 25 -4 25 -10 0 -5 -7 -7 -15 -4
-9 4 -15 0 -15 -10 0 -13 4 -14 25 -4 23 10 24 13 9 29 -16 17 -54 22 -54 7z"/>
<path d="M7406 3414 c-4 -10 -1 -14 6 -12 15 5 23 28 10 28 -5 0 -13 -7 -16
-16z"/>
<path d="M7626 3323 c-3 -3 -2 -11 1 -17 4 -6 9 -20 10 -31 4 -23 60 -77 68
-65 3 5 -4 14 -16 21 l-22 11 24 19 c19 15 21 19 7 19 -10 0 -22 8 -27 19 -11
20 -35 33 -45 24z"/>
<path d="M7421 3269 c11 -11 23 -19 25 -16 6 6 -25 37 -37 37 -5 0 0 -9 12
-21z"/>
<path d="M7536 3282 c-2 -4 -1 -14 4 -22 7 -11 9 -9 7 8 -1 24 -3 26 -11 14z"/>
<path d="M7556 3241 c-4 -5 -2 -20 3 -33 10 -23 10 -23 10 4 1 14 7 29 14 31
7 3 6 6 -5 6 -9 1 -19 -3 -22 -8z"/>
<path d="M7640 3220 c0 -5 5 -10 11 -10 5 0 7 5 4 10 -3 6 -8 10 -11 10 -2 0
-4 -4 -4 -10z"/>
<path d="M7365 3200 c3 -5 8 -10 11 -10 2 0 4 5 4 10 0 6 -5 10 -11 10 -5 0
-7 -4 -4 -10z"/>
<path d="M7250 3090 c0 -5 7 -10 16 -10 8 0 12 5 9 10 -3 6 -10 10 -16 10 -5
0 -9 -4 -9 -10z"/>
<path d="M7112 3019 c-14 -23 -38 -25 -46 -4 -3 8 -10 15 -16 15 -7 0 -6 -7 1
-19 7 -10 9 -27 5 -37 -7 -18 -8 -18 -26 4 -10 12 -20 22 -23 22 -10 0 7 -45
28 -77 l22 -32 44 23 c39 21 44 28 47 63 4 48 -17 73 -36 42z"/>
<path d="M7158 2343 c-3 -641 -4 -676 -20 -645 -9 17 -12 32 -7 32 6 0 7 5 3
11 -4 8 -9 7 -15 -2 -7 -12 -12 -12 -30 -1 -28 18 -85 6 -68 -14 14 -17 5 -44
-14 -44 -8 0 -22 -9 -32 -20 -10 -11 -26 -20 -37 -20 -21 0 -23 -11 -7 -27 9
-9 8 -16 -5 -28 -24 -24 -20 -41 5 -19 17 15 22 16 29 4 6 -9 5 -19 0 -24 -17
-17 -11 -34 10 -29 15 4 20 0 20 -16 0 -12 -4 -20 -9 -16 -5 3 -12 1 -16 -5
-6 -10 72 -6 82 4 3 3 14 1 24 -5 16 -8 19 -6 19 15 0 18 8 27 30 35 17 5 33
17 36 26 8 20 112 22 120 1 3 -9 19 -13 45 -12 44 2 69 19 48 32 -7 4 -14 3
-17 -4 -2 -7 -10 -12 -17 -12 -21 0 -23 52 -2 73 16 16 17 62 17 680 0 364 -4
667 -8 673 -15 23 -53 34 -116 34 l-66 0 -2 -677z"/>
<path d="M6950 1776 c0 -9 5 -16 10 -16 6 0 10 4 10 9 0 6 -4 13 -10 16 -5 3
-10 -1 -10 -9z"/>
<path d="M8390 3396 c0 -9 5 -16 10 -16 6 0 10 4 10 9 0 6 -4 13 -10 16 -5 3
-10 -1 -10 -9z"/>
<path d="M8430 3379 c0 -5 5 -7 10 -4 6 3 10 8 10 11 0 2 -4 4 -10 4 -5 0 -10
-5 -10 -11z"/>
<path d="M10555 3270 c-3 -5 1 -10 9 -10 8 0 18 5 21 10 3 6 -1 10 -9 10 -8 0
-18 -4 -21 -10z"/>
<path d="M11037 3263 c-12 -12 -7 -33 8 -33 17 0 19 9 7 28 -5 7 -11 9 -15 5z"/>
<path d="M10787 3221 c-4 -15 -11 -18 -27 -14 l-23 6 23 -23 c18 -18 24 -20
31 -9 9 14 13 59 5 59 -2 0 -6 -9 -9 -19z"/>
<path d="M10650 3160 c0 -5 5 -10 10 -10 6 0 10 5 10 10 0 6 -4 10 -10 10 -5
0 -10 -4 -10 -10z"/>
<path d="M11080 3160 c0 -5 5 -10 10 -10 6 0 10 5 10 10 0 6 -4 10 -10 10 -5
0 -10 -4 -10 -10z"/>
<path d="M10393 3123 c-18 -6 -16 -33 1 -33 8 0 17 4 20 8 7 12 -7 30 -21 25z"/>
<path d="M10402 3029 c-17 -27 -15 -30 13 -17 28 12 32 23 12 31 -7 3 -19 -3
-25 -14z"/>
<path d="M10350 2720 c6 -11 15 -20 20 -20 14 0 12 9 -4 26 -21 20 -28 17 -16
-6z"/>
<path d="M10543 2573 c-18 -7 -16 -23 2 -23 8 0 15 7 15 15 0 8 -1 15 -2 14
-2 0 -9 -3 -15 -6z"/>
<path d="M10640 2555 c-7 -9 -8 -15 0 -20 5 -3 10 -15 10 -26 0 -10 7 -19 15
-19 8 0 15 5 15 10 0 6 7 10 15 10 27 0 15 27 -22 47 -17 10 -24 9 -33 -2z"/>
<path d="M10640 2219 c0 -23 22 -49 40 -49 26 0 25 12 -3 38 -26 24 -37 28
-37 11z"/>
<path d="M10462 2197 c-9 -11 -10 -17 -2 -22 15 -9 23 -1 18 21 -3 15 -4 16
-16 1z"/>
<path d="M10550 2190 c0 -5 5 -10 10 -10 6 0 10 5 10 10 0 6 -4 10 -10 10 -5
0 -10 -4 -10 -10z"/>
<path d="M10610 2151 c0 -10 -12 -27 -27 -36 -22 -15 -32 -16 -57 -7 -16 7
-32 9 -35 5 -3 -3 0 -8 7 -10 20 -7 14 -21 -15 -38 -21 -12 -23 -15 -8 -13 31
4 57 -55 50 -112 -8 -62 10 -78 90 -76 l60 1 1 55 c1 30 -2 60 -7 66 -5 6 -7
34 -6 62 3 42 0 51 -15 55 -12 4 -18 15 -18 36 0 17 -4 31 -10 31 -5 0 -10 -8
-10 -19z"/>
<path d="M10481 1924 c0 -11 3 -14 6 -6 3 7 2 16 -1 19 -3 4 -6 -2 -5 -13z"/>
<path d="M10607 1713 c-12 -11 -8 -23 7 -23 8 0 16 7 20 15 5 15 -14 21 -27 8z"/>
<path d="M10565 1650 c3 -5 13 -10 21 -10 8 0 14 5 14 10 0 6 -9 10 -21 10
-11 0 -17 -4 -14 -10z"/>
<path d="M10656 1604 c-4 -11 -1 -14 11 -12 9 2 18 9 21 16 6 18 -25 15 -32
-4z"/>
<path d="M10607 1604 c-8 -8 1 -24 14 -24 5 0 9 7 9 15 0 15 -12 20 -23 9z"/>
<path d="M10537 1583 c-13 -12 -7 -71 9 -83 27 -23 37 -50 23 -66 -10 -12 -8
-20 9 -44 12 -16 22 -34 22 -39 0 -6 7 -8 15 -5 8 4 15 1 15 -5 0 -6 7 -11 15
-11 8 0 15 5 15 10 0 6 -5 10 -11 10 -5 0 -17 16 -25 35 -13 33 -13 37 6 57
11 12 20 29 20 38 0 9 5 21 11 27 8 8 8 17 -1 33 -10 18 -17 21 -45 16 -26 -5
-38 -2 -53 14 -10 11 -22 17 -25 13z"/>
<path d="M526 3253 c-6 -14 -5 -15 5 -6 7 7 10 15 7 18 -3 3 -9 -2 -12 -12z"/>
<path d="M550 3210 c0 -5 7 -10 16 -10 8 0 12 5 9 10 -3 6 -10 10 -16 10 -5 0
-9 -4 -9 -10z"/>
<path d="M3105 3420 c-3 -5 -1 -10 4 -10 6 0 11 5 11 10 0 6 -2 10 -4 10 -3 0
-8 -4 -11 -10z"/>
<path d="M767 3314 c-4 -4 -7 -54 -7 -111 0 -94 2 -104 18 -101 21 4 29 56 22
147 -5 59 -16 82 -33 65z"/>
<path d="M850 3235 c0 -8 7 -15 16 -15 14 0 14 3 4 15 -7 8 -14 15 -16 15 -2
0 -4 -7 -4 -15z"/>
<path d="M810 3206 c0 -8 7 -16 15 -20 17 -6 18 -4 9 18 -8 20 -24 21 -24 2z"/>
<path d="M785 3080 c3 -5 8 -10 11 -10 2 0 4 5 4 10 0 6 -5 10 -11 10 -5 0 -7
-4 -4 -10z"/>
<path d="M851 2997 c-8 -11 -6 -13 11 -12 12 1 24 7 26 13 5 16 -23 15 -37 -1z"/>
<path d="M995 3000 c3 -5 8 -10 11 -10 2 0 4 5 4 10 0 6 -5 10 -11 10 -5 0 -7
-4 -4 -10z"/>
<path d="M1030 2990 c0 -6 7 -10 15 -10 8 0 15 2 15 4 0 2 -7 6 -15 10 -8 3
-15 1 -15 -4z"/>
<path d="M1285 3340 c-3 -5 0 -10 9 -10 8 0 17 -6 19 -12 3 -7 6 -3 6 10 1 22
-22 31 -34 12z"/>
<path d="M1265 3060 c-3 -5 -1 -10 4 -10 6 0 11 5 11 10 0 6 -2 10 -4 10 -3 0
-8 -4 -11 -10z"/>
<path d="M1567 3253 c-4 -3 -7 -13 -7 -22 1 -13 3 -13 11 2 11 19 8 33 -4 20z"/>
<path d="M1580 3230 c0 -5 7 -10 16 -10 8 0 12 5 9 10 -3 6 -10 10 -16 10 -5
0 -9 -4 -9 -10z"/>
<path d="M1525 3221 c-3 -5 0 -13 6 -17 7 -4 9 -3 5 4 -3 5 0 13 6 15 9 4 10
6 1 6 -6 1 -14 -3 -18 -8z"/>
<path d="M1525 3180 c-3 -5 -1 -10 4 -10 6 0 11 5 11 10 0 6 -2 10 -4 10 -3 0
-8 -4 -11 -10z"/>
<path d="M2078 3228 c-2 -51 -2 -169 0 -261 3 -167 3 -168 25 -165 21 3 22 8
25 128 2 114 6 140 33 193 10 20 -1 23 -19 5 -9 -9 -12 8 -12 78 0 89 -8 114
-37 114 -9 0 -13 -26 -15 -92z"/>
<path d="M2397 3085 c-4 -33 -11 -86 -15 -119 -6 -40 -5 -62 3 -70 6 -6 10
-18 8 -26 -3 -8 5 -4 17 10 21 23 23 24 35 7 9 -12 15 -15 20 -7 8 13 -1 25
-18 25 -7 1 -11 7 -9 13 2 10 -3 10 -17 2 -27 -14 -38 -13 -20 3 13 10 14 30
9 117 -6 104 -6 104 -13 45z"/>
<path d="M2785 3410 c-3 -5 -1 -10 4 -10 6 0 11 5 11 10 0 6 -2 10 -4 10 -3 0
-8 -4 -11 -10z"/>
<path d="M2656 2971 c-3 -5 4 -11 16 -14 25 -7 33 -3 23 12 -8 13 -32 14 -39
2z"/>
<path d="M2672 2843 c-6 -2 -10 -9 -6 -14 8 -14 21 -11 21 6 0 8 -1 15 -1 14
-1 0 -7 -3 -14 -6z"/>
<path d="M5447 3056 c-18 -14 -22 -26 -9 -26 15 0 45 27 36 33 -5 3 -17 0 -27
-7z"/>
<path d="M4330 3030 c0 -12 35 -31 44 -23 10 10 7 33 -5 33 -5 0 -7 -4 -4 -10
3 -5 1 -10 -4 -10 -6 0 -11 5 -11 10 0 6 -4 10 -10 10 -5 0 -10 -4 -10 -10z"/>
<path d="M4310 3005 c7 -9 15 -13 17 -11 7 7 -7 26 -19 26 -6 0 -6 -6 2 -15z"/>
<path d="M4100 640 c0 -5 5 -10 10 -10 6 0 10 5 10 10 0 6 -4 10 -10 10 -5 0
-10 -4 -10 -10z"/>
<path d="M784 814 c4 -12 1 -14 -14 -9 -11 4 -20 2 -20 -3 0 -5 11 -12 25 -14
21 -4 25 -1 25 18 0 13 -5 24 -11 24 -6 0 -8 -7 -5 -16z"/>
<path d="M750 765 c7 -9 15 -13 17 -11 7 7 -7 26 -19 26 -6 0 -6 -6 2 -15z"/>
<path d="M1922 770 c-14 -23 -5 -26 21 -6 20 16 22 26 4 26 -7 0 -18 -9 -25
-20z"/>
<path d="M5543 743 c-13 -8 -23 -24 -23 -34 0 -11 -6 -19 -14 -19 -8 0 -18 -5
-22 -12 -5 -8 -2 -9 9 -5 13 5 17 1 17 -19 0 -14 4 -23 8 -20 4 3 24 1 44 -3
28 -7 42 -4 67 11 37 24 44 64 9 55 -28 -8 -48 9 -48 39 0 27 -15 30 -47 7z"/>
<path d="M5650 615 c7 -9 15 -13 17 -11 7 7 -7 26 -19 26 -6 0 -6 -6 2 -15z"/>
<path d="M5640 569 c0 -5 5 -7 10 -4 6 3 10 8 10 11 0 2 -4 4 -10 4 -5 0 -10
-5 -10 -11z"/>
<path d="M10670 811 c0 -5 -3 -18 -7 -28 -6 -17 -5 -17 15 1 12 10 19 23 16
27 -7 12 -24 11 -24 0z"/>
<path d="M3041 824 c0 -11 3 -14 6 -6 3 7 2 16 -1 19 -3 4 -6 -2 -5 -13z"/>
<path d="M3070 795 c0 -8 -17 -19 -40 -26 -32 -10 -42 -18 -48 -43 -7 -26 -4
-34 17 -52 14 -12 29 -18 32 -13 3 5 13 7 21 4 18 -7 33 11 33 40 0 16 6 19
26 17 33 -3 52 19 44 51 -9 34 -85 54 -85 22z"/>
<path d="M8020 826 c0 -9 5 -16 10 -16 6 0 10 4 10 9 0 6 -4 13 -10 16 -5 3
-10 -1 -10 -9z"/>
<path d="M8053 791 c-7 -11 -28 -24 -47 -31 -20 -6 -36 -15 -37 -18 -5 -44 -3
-54 17 -73 13 -12 24 -17 28 -10 4 5 13 8 21 4 21 -7 48 16 36 31 -15 18 1 33
34 32 27 -1 30 3 33 32 3 33 1 35 -48 46 -18 4 -29 0 -37 -13z"/>
</g>
</svg>
